<svg width="695" height="120" viewBox="0 0 695 120" fill="none" xmlns="http://www.w3.org/2000/svg">
<path d="M661.75 34C667.77 34 673.113 35.0267 677.78 37.08C682.447 39.1333 686.18 42.0033 688.98 45.69C691.827 49.3767 693.623 53.6467 694.37 58.5L677.01 62.21C676.077 57.87 674.327 54.5333 671.76 52.2C669.24 49.82 665.903 48.63 661.75 48.63C658.11 48.63 654.937 49.6333 652.23 51.64C649.57 53.6 647.517 56.47 646.07 60.25C644.623 63.9833 643.9 68.4867 643.9 73.76C643.9 78.8467 644.623 83.28 646.07 87.06C647.563 90.84 649.663 93.7567 652.37 95.81C655.077 97.8633 658.227 98.89 661.82 98.89C665.833 98.89 669.147 97.8167 671.76 95.67C674.373 93.4767 676.077 90.28 676.87 86.08H694.79C693.763 94.76 690.427 101.503 684.78 106.31C679.133 111.117 671.48 113.52 661.82 113.52C654.4 113.52 647.913 111.887 642.36 108.62C636.807 105.353 632.513 100.733 629.48 94.76C626.493 88.74 625 81.74 625 73.76C625 65.78 626.493 58.8033 629.48 52.83C632.513 46.81 636.807 42.1667 642.36 38.9C647.913 35.6333 654.377 34 661.75 34Z" fill="white"/>
<path d="M595.64 35.4H613.63V112.12H595.64V35.4ZM614.33 6V23.29H594.66V6H614.33Z" fill="white"/>
<path d="M543 35.4001H560.01V51.1501H560.78C562.367 44.8967 564.607 40.5801 567.5 38.2001C570.393 35.7734 574.057 34.5601 578.49 34.5601H585.56V51.8501H576.53C571.163 51.8501 567.22 53.7401 564.7 57.5201C562.227 61.2534 560.99 67.1101 560.99 75.0901V112.12H543V35.4001Z" fill="white"/>
<path d="M498.75 113.52C491.423 113.52 484.983 111.91 479.43 108.69C473.877 105.423 469.583 100.803 466.55 94.83C463.517 88.8567 462 81.88 462 73.9C462 66.0133 463.517 59.06 466.55 53.04C469.63 47.02 473.947 42.3533 479.5 39.04C485.053 35.68 491.447 34 498.68 34C505.213 34 511.023 35.3767 516.11 38.13C521.197 40.8833 525.21 45.1533 528.15 50.94C531.137 56.68 532.63 63.8667 532.63 72.5C532.63 74.2733 532.56 76.07 532.42 77.89H480.9C481.227 82.3233 482.183 86.1733 483.77 89.44C485.403 92.66 487.503 95.1333 490.07 96.86C492.637 98.54 495.53 99.38 498.75 99.38C502.857 99.38 506.217 98.4233 508.83 96.51C511.49 94.55 513.333 91.75 514.36 88.11H532.63C531.977 92.5433 530.18 96.72 527.24 100.64C524.3 104.513 520.38 107.64 515.48 110.02C510.58 112.353 505.003 113.52 498.75 113.52ZM514.36 65.57C514.127 59.9233 512.633 55.5133 509.88 52.34C507.173 49.12 503.463 47.51 498.75 47.51C494.177 47.51 490.373 48.9567 487.34 51.85C484.307 54.7433 482.3 59.3167 481.32 65.57H514.36Z" fill="white"/>
<path d="M427.581 34C432.201 34 436.284 35.1433 439.831 37.43C443.424 39.67 446.224 42.9367 448.231 47.23C450.237 51.4767 451.241 56.4933 451.241 62.28V112.12H433.321V65.78C433.321 60.6467 432.294 56.6567 430.241 53.81C428.234 50.9633 425.387 49.54 421.701 49.54C416.661 49.54 412.741 51.5467 409.941 55.56C407.141 59.5267 405.741 65.0567 405.741 72.15V112.12H387.751V65.78C387.751 60.6933 386.677 56.7267 384.531 53.88C382.431 50.9867 379.561 49.54 375.921 49.54C370.974 49.54 367.147 51.57 364.441 55.63C361.734 59.6433 360.381 65.1733 360.381 72.22V112.12H342.391V35.4H360.381V49.75H361.151C363.017 45.0367 365.724 41.2333 369.271 38.34C372.864 35.4467 377.391 34 382.851 34C386.351 34 389.501 34.6767 392.301 36.03C395.101 37.3833 397.387 39.25 399.161 41.63C400.981 43.9633 402.217 46.67 402.871 49.75H403.501C405.694 45.0367 408.891 41.2333 413.091 38.34C417.337 35.4467 422.167 34 427.581 34Z" fill="white"/>
<path d="M281.99 84.7911C281.99 94.5304 287.657 99.7911 296.389 99.7911C305.121 99.7911 310.788 94.5304 310.788 84.7911L311.178 35.3999H329.168L328.778 81.7091C328.778 101.838 317.942 113.5 296.389 113.5C274.837 113.5 264 100.958 264 82.8291L264.39 35.3999H282.38L281.99 84.7911Z" fill="white"/>
<path d="M165.1 9.71021H188.41L230.97 83.2102H231.74V9.71021H250.99V112.47H227.82L185.19 39.0402H184.35V112.47H165.1V9.71021Z" fill="white"/>
<path d="M20.4216 15.0541C31.3069 24.7897 45.3987 30.1722 60.0028 30.1722C74.6069 30.1722 88.6987 24.7897 99.584 15.0541C88.6801 5.3568 74.5953 0 60.0028 0C45.4102 0 31.3255 5.35679 20.4216 15.0541Z" fill="white"/>
<path d="M30.1737 60.0004C30.1737 74.6038 24.7909 88.6949 15.0548 99.5796C5.35707 88.6762 0 74.5922 0 60.0004C0 45.4086 5.35707 31.3246 15.0548 20.4212C24.7909 31.3059 30.1737 45.397 30.1737 60.0004Z" fill="white"/>
<path d="M120 60.0004C120 74.6038 114.617 88.6949 104.881 99.5796C95.1834 88.6762 89.8263 74.5922 89.8263 60.0004C89.8263 45.4086 95.1834 31.3246 104.881 20.4212C114.617 31.3059 120 45.397 120 60.0004Z" fill="white"/>
<path d="M60.0028 120C45.3987 120 31.3069 114.618 20.4216 104.882C31.3255 95.1846 45.4102 89.8278 60.0028 89.8278C74.5953 89.8278 88.6801 95.1846 99.584 104.882C88.6987 114.618 74.6069 120 60.0028 120Z" fill="white"/>
</svg>
